<svg width="350" height="355" viewBox="0 0 350 355" fill="none" xmlns="http://www.w3.org/2000/svg">
<path d="M349 177.5C349 274.978 271.098 354 175 354C78.9025 354 1 274.978 1 177.5C1 80.0217 78.9025 1 175 1C271.098 1 349 80.0217 349 177.5Z" fill="#FF00CC"/>
<path d="M121.796 49H227.204L229.4 51.1943V83.3772L227.204 85.5714H121.796L119.6 83.3772V51.1943L121.796 49ZM231.596 85.5714H263.804L266 87.7657V229.663L263.804 231.857H158.396L156.2 229.663V124.337L158.396 122.143H190.604L192.8 124.337V193.091L190.604 195.286L192.8 197.48L194.996 195.286H227.204L229.4 197.48L231.596 195.286L229.4 193.091V87.7657L231.596 85.5714ZM85.196 85.5714H117.404L119.6 87.7657V266.234L117.404 268.429H85.196L83 266.234V87.7657L85.196 85.5714ZM121.796 268.429H245.504L247.7 270.623V302.806L245.504 305H121.796L119.6 302.806V270.623L121.796 268.429Z" fill="#0300BF"/>
<path d="M175 354.1C271.154 354.1 349.1 275.032 349.1 177.5C349.1 79.9679 271.154 0.9 175 0.9C78.8459 0.9 0.9 79.9679 0.9 177.5C0.9 275.032 78.8459 354.1 175 354.1Z" stroke="black" stroke-width="0.2"/>
</svg>
